<?xml version="1.0" encoding="utf-8"?>
<svg xmlns="http://www.w3.org/2000/svg" width="200px" height="200px" viewBox="0 0 200 200">
  <path d="M 176.226 68.183 C 175.066 69.083 154.581 80.625 154.581 106.291 C 154.581 135.977 180.646 146.48 181.427 146.739 C 181.307 147.38 177.286 161.122 167.684 175.125 C 159.122 187.448 150.18 199.75 136.577 199.75 C 122.974 199.75 119.474 191.849 103.771 191.849 C 88.467 191.849 83.027 200.011 70.583 200.011 C 58.141 200.011 49.46 188.608 39.478 174.605 C 27.915 158.162 18.573 132.617 18.573 108.372 C 18.573 69.484 43.858 48.859 68.744 48.859 C 81.966 48.859 92.988 57.541 101.29 57.541 C 109.191 57.541 121.514 48.339 136.557 48.339 C 142.259 48.339 162.743 48.859 176.226 68.183 Z M 129.416 31.876 C 135.637 24.494 140.038 14.252 140.038 4.01 C 140.038 2.59 139.918 1.149 139.658 -0.011 C 129.536 0.369 117.493 6.73 110.232 15.152 C 104.531 21.634 99.209 31.876 99.209 42.257 C 99.209 43.818 99.47 45.379 99.59 45.879 C 100.23 45.998 101.27 46.139 102.31 46.139 C 111.393 46.139 122.815 40.057 129.416 31.876 Z" style="fill: rgb(255, 255, 255);" />
</svg>