<svg xmlns="http://www.w3.org/2000/svg" xmlns:xlink="http://www.w3.org/1999/xlink" viewBox="0 0 200 200" width="200px" height="200px">
  <path fill-rule="evenodd" clip-rule="evenodd" d="M 13.693 88.614 C 67.369 65.304 103.102 49.815 121.044 42.299 C 172.114 20.984 182.849 17.303 189.751 17.149 C 191.284 17.149 194.658 17.456 196.958 19.295 C 198.799 20.829 199.259 22.823 199.565 24.356 C 199.873 25.889 200.18 29.111 199.873 31.565 C 197.112 60.703 185.15 131.402 179.016 163.916 C 176.408 177.717 171.347 182.317 166.441 182.778 C 155.705 183.699 147.577 175.724 137.302 168.976 C 121.044 158.395 111.997 151.8 96.202 141.371 C 77.951 129.408 89.76 122.815 100.188 112.08 C 102.948 109.319 150.031 66.378 150.95 62.545 C 151.104 62.084 151.104 60.243 150.031 59.323 C 148.956 58.403 147.423 58.71 146.197 59.016 C 144.509 59.323 118.745 76.5 68.596 110.391 C 61.235 115.453 54.64 117.906 48.659 117.754 C 42.065 117.6 29.49 114.072 19.981 111.005 C 8.479 107.325 -0.723 105.331 0.045 98.89 C 0.503 95.516 5.105 92.142 13.693 88.614 Z" style="fill: rgb(255, 255, 255);"></path>
</svg>